# Blender 3.1.0
# www.blender.org
mtllib water.mtl
o Plane
v 2.400000 0.000000 -2.400000
v 4.205785 0.000000 -1.933561
v 3.402436 0.000001 -3.138585
v 2.266033 0.000001 -4.036382
v -4.036382 0.000000 -2.266033
v -2.400000 0.000000 -2.400000
v -1.933561 0.000001 -4.205785
v -3.138585 0.000001 -3.402436
v -0.800000 0.000000 -2.400000
v -0.539267 0.000001 -4.597443
v 0.800000 0.000000 -2.400000
v 0.907814 0.000001 -4.539071
v -3.402436 -0.000001 3.138585
v -2.266033 -0.000001 4.036382
v -2.400000 -0.000000 2.400000
v -4.205785 -0.000000 1.933561
v -2.400000 -0.000000 0.800000
v -4.597443 -0.000000 0.539267
v -2.400000 0.000000 -0.800000
v -4.539071 0.000000 -0.907814
v -0.907814 -0.000001 4.539071
v -0.800000 -0.000000 2.400000
v -0.800000 -0.000000 0.800000
v -0.800000 0.000000 -0.800000
v 0.539267 -0.000001 4.597443
v 0.800000 -0.000000 2.400000
v 0.800000 -0.000000 0.800000
v 0.800000 0.000000 -0.800000
v 1.933561 -0.000001 4.205785
v 2.400000 -0.000000 2.400000
v 2.400000 -0.000000 0.800000
v 2.400000 0.000000 -0.800000
v 3.138585 -0.000001 3.402436
v 4.036382 -0.000000 2.266033
v 4.539071 -0.000000 0.907814
v 4.597443 0.000000 -0.539267
vn -0.0000 1.0000 -0.0000
vt 0.800000 0.800000
vt 1.000000 0.800000
vt 1.000000 1.000000
vt 0.800000 1.000000
vt 0.000000 0.800000
vt 0.200000 0.800000
vt 0.200000 1.000000
vt 0.000000 1.000000
vt 0.400000 0.800000
vt 0.400000 1.000000
vt 0.600000 0.800000
vt 0.600000 1.000000
vt 0.000000 0.000000
vt 0.200000 0.000000
vt 0.200000 0.200000
vt 0.000000 0.200000
vt 0.200000 0.400000
vt 0.000000 0.400000
vt 0.200000 0.600000
vt 0.000000 0.600000
vt 0.400000 0.000000
vt 0.400000 0.200000
vt 0.400000 0.400000
vt 0.400000 0.600000
vt 0.600000 0.000000
vt 0.600000 0.200000
vt 0.600000 0.400000
vt 0.600000 0.600000
vt 0.800000 0.000000
vt 0.800000 0.200000
vt 0.800000 0.400000
vt 0.800000 0.600000
vt 1.000000 0.000000
vt 1.000000 0.200000
vt 1.000000 0.400000
vt 1.000000 0.600000
s 1
usemtl Water
f 1/1/1 2/2/1 3/3/1 4/4/1
f 5/5/1 6/6/1 7/7/1 8/8/1
f 6/6/1 9/9/1 10/10/1 7/7/1
f 9/9/1 11/11/1 12/12/1 10/10/1
f 11/11/1 1/1/1 4/4/1 12/12/1
f 13/13/1 14/14/1 15/15/1 16/16/1
f 16/16/1 15/15/1 17/17/1 18/18/1
f 18/18/1 17/17/1 19/19/1 20/20/1
f 20/20/1 19/19/1 6/6/1 5/5/1
f 14/14/1 21/21/1 22/22/1 15/15/1
f 15/15/1 22/22/1 23/23/1 17/17/1
f 17/17/1 23/23/1 24/24/1 19/19/1
f 19/19/1 24/24/1 9/9/1 6/6/1
f 21/21/1 25/25/1 26/26/1 22/22/1
f 22/22/1 26/26/1 27/27/1 23/23/1
f 23/23/1 27/27/1 28/28/1 24/24/1
f 24/24/1 28/28/1 11/11/1 9/9/1
f 25/25/1 29/29/1 30/30/1 26/26/1
f 26/26/1 30/30/1 31/31/1 27/27/1
f 27/27/1 31/31/1 32/32/1 28/28/1
f 28/28/1 32/32/1 1/1/1 11/11/1
f 29/29/1 33/33/1 34/34/1 30/30/1
f 30/30/1 34/34/1 35/35/1 31/31/1
f 31/31/1 35/35/1 36/36/1 32/32/1
f 32/32/1 36/36/1 2/2/1 1/1/1
